<?xml version="1.0" encoding="UTF-8" standalone="no"?>
<svg width="48px" height="46px" viewBox="0 0 48 46" version="1.1" xmlns="http://www.w3.org/2000/svg" xmlns:xlink="http://www.w3.org/1999/xlink">
    <g id="Page-1" stroke="none" stroke-width="1" fill="none" fill-rule="evenodd">
        <g id="noun_542609_cc" fill="#7ED321">
            <path d="M48,27.502 C48,26.3 47.522,25.18 46.7,24.352 C47.634,23.33 48.108,21.958 47.978,20.534 C47.746,17.992 45.454,16 42.764,16 L30.412,16 C31.02,14.142 32,10.736 32,8 C32,3.662 28.314,0 26,0 C23.922,0 22.436,1.168 22.374,1.218 C22.136,1.41 22,1.696 22,2 L22,8.78 L16.24,21.262 L16,21.382 L16,21 C16,20.448 15.552,20 15,20 L5,20 C2.244,20 0,22.244 0,25 L0,41 C0,43.756 2.244,46 5,46 L11,46 C13.164,46 15.01,44.62 15.708,42.696 C17.372,43.552 19.612,44.002 21.002,44.002 L39.36,44.002 C41.538,44.002 43.442,42.532 43.89,40.508 C44.12,39.466 43.986,38.416 43.53,37.504 C45.006,36.76 46,35.238 46,33.502 C46,32.794 45.838,32.116 45.53,31.502 C47.006,30.758 48,29.236 48,27.502 L48,27.502 Z M11,44 L5,44 C3.344,44 2,42.654 2,41 L2,25 C2,23.346 3.346,22 5,22 L5,22.01 L13.996,22.01 L13.996,23.01 C13.996,23.016 14,23.02 14,23.026 L14,41 C14,42.654 12.652,44 11,44 L11,44 Z M43.78,29.972 C43.394,30.016 43.068,30.278 42.946,30.648 C42.824,31.016 42.924,31.424 43.208,31.69 C43.718,32.172 43.998,32.816 43.998,33.504 C43.998,34.764 43.046,35.826 41.782,35.97 C41.396,36.014 41.07,36.276 40.948,36.646 C40.826,37.014 40.926,37.422 41.21,37.688 C41.87,38.31 42.134,39.182 41.936,40.076 C41.69,41.19 40.606,42 39.358,42 L21,42 C19.514,42 17.122,41.358 16,40.524 L16,23.624 L17.442,22.904 C17.644,22.802 17.806,22.634 17.902,22.428 L23.902,9.428 C23.962,9.298 23.994,9.154 23.994,9.01 L23.994,2.554 C24.41,2.324 25.132,2.01 25.994,2.01 C27.09,2.01 29.994,4.736 29.994,8.01 C29.994,11.528 28.08,16.604 28.06,16.654 C27.944,16.96 27.984,17.306 28.172,17.576 C28.36,17.846 28.666,18.008 28.996,18.008 L42.758,18.008 C44.426,18.008 45.842,19.2 45.982,20.724 C46.088,21.864 45.544,22.948 44.56,23.554 C44.252,23.742 44.072,24.084 44.086,24.444 C44.098,24.804 44.306,25.128 44.628,25.294 C45.472,25.726 45.996,26.574 45.996,27.506 C45.994,28.766 45.042,29.828 43.78,29.972 L43.78,29.972 Z" id="Shape"></path>
        </g>
    </g>
</svg>
