<?xml version="1.0" encoding="UTF-8"?>
<svg width="54px" height="58px" viewBox="0 0 54 58" version="1.1" xmlns="http://www.w3.org/2000/svg" xmlns:xlink="http://www.w3.org/1999/xlink">
    <!-- Generator: Sketch 39.1 (31720) - http://www.bohemiancoding.com/sketch -->
    <title>Edit</title>
    <desc>Created with Sketch.</desc>
    <defs>
        <rect id="path-1" x="0" y="7" width="51" height="51" rx="8"></rect>
        <mask id="mask-2" maskContentUnits="userSpaceOnUse" maskUnits="objectBoundingBox" x="0" y="0" width="51" height="51" fill="white">
            <use xlink:href="#path-1"></use>
        </mask>
        <rect id="path-3" x="18" y="-3" width="7" height="38"></rect>
        <mask id="mask-4" maskContentUnits="userSpaceOnUse" maskUnits="objectBoundingBox" x="0" y="0" width="7" height="38" fill="white">
            <use xlink:href="#path-3"></use>
        </mask>
        <rect id="path-5" x="29.4675144" y="1.57842712" width="7" height="6.12132034"></rect>
        <mask id="mask-6" maskContentUnits="userSpaceOnUse" maskUnits="objectBoundingBox" x="0" y="0" width="7" height="6.12132034" fill="white">
            <use xlink:href="#path-5"></use>
        </mask>
    </defs>
    <g id="Page-1" stroke="none" stroke-width="1" fill="none" fill-rule="evenodd">
        <g id="Edit">
            <use id="Rectangle-6" stroke="#000000" mask="url(#mask-2)" stroke-width="2" xlink:href="#path-1"></use>
            <rect id="Rectangle-7" fill="#FFFFFF" x="34" y="0" width="20" height="20" rx="8"></rect>
            <path d="M7.5,49.5 L42.5,49.5" id="Line" stroke="#979797" stroke-linecap="square"></path>
            <path d="M7.5,43.5 L42.5,43.5" id="Line" stroke="#979797" stroke-linecap="square"></path>
            <path d="M7.5,37.5 L42.5,37.5" id="Line" stroke="#979797" stroke-linecap="square"></path>
            <path d="M7.5,31.5 L42.5,31.5" id="Line" stroke="#979797" stroke-linecap="square"></path>
            <path d="M7.5,25.5 L42.5,25.5" id="Line" stroke="#979797" stroke-linecap="square"></path>
            <path d="M7.5,19.5 L42.5,19.5" id="Line" stroke="#979797" stroke-linecap="square"></path>
            <g id="Pencil" transform="translate(15.000000, 5.000000)" stroke="#000000">
                <polygon id="Triangle-2" stroke-width="0.8" fill="#FFFFFF" transform="translate(5.362758, 32.132747) rotate(-135.000000) translate(-5.362758, -32.132747) " points="5.36275793 28.0436453 8.36275793 36.2218486 2.36275793 36.2218486"></polygon>
                <use id="Rectangle-4" mask="url(#mask-4)" stroke-width="2" fill="#FCD557" transform="translate(21.500000, 16.000000) rotate(45.000000) translate(-21.500000, -16.000000) " xlink:href="#path-3"></use>
                <use id="Rectangle-5" mask="url(#mask-6)" stroke-width="2" fill="#FFA3E1" transform="translate(32.967514, 4.639087) rotate(45.000000) translate(-32.967514, -4.639087) " xlink:href="#path-5"></use>
                <path d="M27.5,6.5 L31.5,10.5" id="Line" stroke-linecap="square"></path>
                <path d="M3.2,33.7 L4.03033009,34.0303301" id="Line" stroke-linecap="square"></path>
            </g>
        </g>
    </g>
</svg>