<?xml version="1.0" encoding="UTF-8" standalone="no"?>
<svg width="86px" height="86px" viewBox="0 0 86 86" version="1.1" xmlns="http://www.w3.org/2000/svg" xmlns:xlink="http://www.w3.org/1999/xlink">
    <g id="Page-1" stroke="none" stroke-width="1" fill="none" fill-rule="evenodd">
        <g id="noun_433297_cc" transform="translate(0.000000, -1.000000)" fill="#7ED321">
            <g id="Group" transform="translate(0.000000, 0.637820)">
                <path d="M79.375,0.36218 L46.4375,1.04968 C46.1807249,1.05169319 45.9345621,1.15239615 45.75,1.33093 L0.875,46.20593 C-0.281347,47.36193 -0.2810794,49.26828 0.875,50.42468 L35.9375,85.48718 C37.093541,86.64348 39.000007,86.64348 40.15625,85.48718 L85,40.61218 C85.1900122,40.4326603 85.302185,40.1858803 85.3125,39.92468 L86,6.98718 C86.0001628,6.97676397 86.0001628,6.96634603 86,6.95593 C86.000043,5.25339 85.613234,3.38141 84.3125,2.08093 C83.012451,0.78087 81.129528,0.36028 79.40625,0.36218 C79.395834,0.362017246 79.385416,0.362017246 79.375,0.36218 L79.375,0.36218 Z M79.40625,2.36218 C80.762464,2.36118 82.199253,2.78018 82.90625,3.48718 C83.607355,4.18815 83.994252,5.55845 84,6.92468 C84.000044,6.93518 84,6.94543 84,6.95593 L83.3125,39.48718 L38.71875,84.04968 C38.321629,84.44678 37.740925,84.44698 37.34375,84.04968 L2.28125,49.01843 C1.884112,48.62123 1.8842354,48.00908 2.28125,47.61218 L46.875,3.04968 L79.40625,2.36218 L79.40625,2.36218 Z M70,10.36218 C68.462372,10.36218 66.917385,10.944795 65.75,12.11218 C63.415229,14.44695 63.415229,18.27741 65.75,20.61218 C68.08477,22.94695 71.91523,22.94695 74.25,20.61218 C76.584771,18.27741 76.584771,14.44695 74.25,12.11218 C73.082615,10.944795 71.537628,10.36218 70,10.36218 L70,10.36218 Z M70,12.36218 C71.021596,12.36218 72.058514,12.733195 72.84375,13.51843 C74.414223,15.0889 74.414222,17.63546 72.84375,19.20593 C71.273277,20.77641 68.726723,20.77641 67.15625,19.20593 C65.585778,17.63546 65.585778,15.0889 67.15625,13.51843 C67.941486,12.733195 68.978404,12.36218 70,12.36218 L70,12.36218 Z M42.875,24.33093 C42.3598842,24.3954753 41.9798022,24.8434292 42,25.36218 L42,28.39343 C39.937904,28.565538 38.073707,29.283446 36.65625,30.48718 C35.01246,31.88312 34,33.96728 34,36.36218 C34,38.98334 35.307111,40.74957 37,41.83093 C38.507683,42.793933 40.290034,43.352901 42,44.01843 L42,56.29968 C38.996156,56.028027 36.658347,54.535116 35.96875,52.08093 C35.8220493,51.5459042 35.2694008,51.2311044 34.734375,51.3778051 C34.1993492,51.5245057 33.8845494,52.0771542 34.03125,52.61218 C34.999567,56.058421 38.295107,58.001656 42,58.29968 L42,61.36218 C41.9948997,61.7228159 42.1843753,62.0582614 42.4958728,62.2400677 C42.8073704,62.4218741 43.1926296,62.4218741 43.5041272,62.2400677 C43.8156247,62.0582614 44.0051003,61.7228159 44,61.36218 L44,58.33093 C46.061802,58.152314 47.926469,57.409483 49.34375,56.20593 C50.987535,54.80993 52,52.75708 52,50.36218 C52,47.74098 50.692894,45.94348 49,44.86218 C47.491659,43.898759 45.710648,43.340608 44,42.67468 L44,30.42468 C47.00452,30.691018 49.341545,32.15752 50.03125,34.61218 C50.1779506,35.1472059 50.7305991,35.4620056 51.265625,35.315305 C51.8006509,35.1686044 52.1154506,34.6159559 51.96875,34.08093 C51.000433,30.634689 47.704893,28.718401 44,28.42468 L44,25.36218 C44.011486,25.0684371 43.8931552,24.7845169 43.6764559,24.5858758 C43.4597566,24.3872348 43.1666376,24.2939927 42.875,24.33093 L42.875,24.33093 Z M42,30.42468 L42,41.89343 C40.501461,41.319703 39.075748,40.79061 38.0625,40.14343 C36.735389,39.29576 36,38.39945 36,36.36218 C36,34.51618 36.73959,33.06226 37.96875,32.01843 C38.990861,31.150431 40.384017,30.591976 42,30.42468 L42,30.42468 Z M44,44.83093 C45.496336,45.403739 46.925545,45.903285 47.9375,46.54968 C49.264606,47.39738 50,48.32488 50,50.36218 C50,52.20808 49.260415,53.63088 48.03125,54.67468 C47.009348,55.542473 45.615547,56.12496 44,56.29968 L44,44.83093 L44,44.83093 Z" id="Shape"></path>
            </g>
        </g>
    </g>
</svg>
