<?xml version="1.0" encoding="UTF-8" standalone="no"?>
<svg width="70px" height="86px" viewBox="0 0 70 86" version="1.1" xmlns="http://www.w3.org/2000/svg" xmlns:xlink="http://www.w3.org/1999/xlink">
    <!-- Generator: Sketch 39.1 (31720) - http://www.bohemiancoding.com/sketch -->
    <title>noun_553566_cc</title>
    <desc>Created with Sketch.</desc>
    <defs></defs>
    <g id="Page-1" stroke="none" stroke-width="1" fill="none" fill-rule="evenodd">
        <g id="noun_553566_cc" fill="#7ED321">
            <g id="Group">
                <path d="M70,18 L70,86 L0,86 L0,18 L30,18 L30,21.778 L4,21.778 L4,82.222 L66,82.222 L66,21.778 L40,21.778 L40,18 L70,18 L70,18 Z M34.574,0.096 C34.151,0.147 33.929,0.342 33.586,0.586 L23.586,10.586 C22.805,11.367 22.805,12.633 23.586,13.414 C24.367,14.195 25.633,14.195 26.414,13.414 L33,6.828 L33,50 L37,50 L37,6.828 L43.586,13.414 C44.367,14.195 45.633,14.195 46.414,13.414 C47.195,12.633 47.195,11.367 46.414,10.586 L36.414,0.586 L35.753,0.146 C34.988,0.132 35.381,0.148 34.574,0.096 L34.574,0.096 Z" id="Shape"></path>
            </g>
        </g>
    </g>
</svg>